<svg width="31" height="31" viewBox="0 0 31 31" fill="none" xmlns="http://www.w3.org/2000/svg">
<g clip-path="url(#clip0_6725_446)">
<path d="M26.3633 30.9453H23.8633V24.6416C23.8623 23.6616 23.4725 22.722 22.7796 22.029C22.0866 21.336 21.147 20.9463 20.167 20.9453H10.0595C9.07953 20.9463 8.13995 21.336 7.44698 22.029C6.75402 22.722 6.36427 23.6616 6.36328 24.6416V30.9453H3.86328V24.6416C3.86527 22.9988 4.51872 21.4239 5.68031 20.2623C6.84191 19.1008 8.41679 18.4473 10.0595 18.4453H20.167C21.8098 18.4473 23.3847 19.1008 24.5462 20.2623C25.7078 21.4239 26.3613 22.9988 26.3633 24.6416V30.9453Z" fill="white"/>
<path d="M15.1133 15.9453C13.6299 15.9453 12.1799 15.5054 10.9465 14.6813C9.71314 13.8572 8.75185 12.6859 8.18419 11.3154C7.61653 9.945 7.46801 8.437 7.7574 6.98214C8.04678 5.52728 8.76109 4.19091 9.80998 3.14201C10.8589 2.09312 12.1953 1.37882 13.6501 1.08943C15.105 0.800037 16.613 0.948562 17.9834 1.51622C19.3539 2.08388 20.5252 3.04517 21.3493 4.27854C22.1734 5.51191 22.6133 6.96196 22.6133 8.44532C22.6113 10.4338 21.8205 12.3403 20.4144 13.7464C19.0083 15.1525 17.1018 15.9433 15.1133 15.9453ZM15.1133 3.44532C14.1244 3.44532 13.1577 3.73856 12.3354 4.28797C11.5132 4.83737 10.8723 5.61827 10.4939 6.5319C10.1154 7.44553 10.0164 8.45086 10.2094 9.42077C10.4023 10.3907 10.8785 11.2816 11.5778 11.9809C12.277 12.6801 13.1679 13.1563 14.1378 13.3492C15.1077 13.5422 16.1131 13.4432 17.0267 13.0647C17.9403 12.6863 18.7212 12.0454 19.2706 11.2232C19.82 10.4009 20.1133 9.43422 20.1133 8.44532C20.1133 7.11923 19.5865 5.84746 18.6488 4.90978C17.7111 3.9721 16.4394 3.44532 15.1133 3.44532Z" fill="white"/>
</g>
<defs>
<clipPath id="clip0_6725_446">
<rect width="30" height="30" fill="white" transform="translate(0.113281 0.945312)"/>
</clipPath>
</defs>
</svg>
