<svg width="31" height="31" viewBox="0 0 31 31" fill="none" xmlns="http://www.w3.org/2000/svg">
<g clip-path="url(#clip0_6725_426)">
<path d="M8.04953 14.6953H3.86328C3.53176 14.6953 3.21382 14.827 2.9794 15.0614C2.74498 15.2959 2.61328 15.6138 2.61328 15.9453V19.6953H0.113281V15.9453C0.113281 14.9508 0.508369 13.9969 1.21163 13.2937C1.91489 12.5904 2.86872 12.1953 3.86328 12.1953H9.53453C8.88058 12.9234 8.37602 13.7728 8.04953 14.6953ZM26.3633 12.1953H20.692C21.346 12.9234 21.8505 13.7728 22.177 14.6953H26.3633C26.6948 14.6953 27.0127 14.827 27.2472 15.0614C27.4816 15.2959 27.6133 15.6138 27.6133 15.9453V19.6953H30.1133V15.9453C30.1133 14.9508 29.7182 13.9969 29.0149 13.2937C28.3117 12.5904 27.3578 12.1953 26.3633 12.1953ZM20.1133 17.1953C20.1133 16.2064 19.82 15.2397 19.2706 14.4175C18.7212 13.5952 17.9403 12.9544 17.0267 12.5759C16.1131 12.1975 15.1077 12.0985 14.1378 12.2914C13.1679 12.4843 12.277 12.9605 11.5777 13.6598C10.8785 14.359 10.4023 15.25 10.2094 16.2199C10.0164 17.1898 10.1154 18.1951 10.4939 19.1087C10.8723 20.0224 11.5132 20.8033 12.3354 21.3527C13.1577 21.9021 14.1244 22.1953 15.1133 22.1953C16.4394 22.1953 17.7111 21.6685 18.6488 20.7308C19.5865 19.7932 20.1133 18.5214 20.1133 17.1953ZM17.6133 17.1953C17.6133 17.6898 17.4667 18.1731 17.192 18.5842C16.9173 18.9954 16.5268 19.3158 16.07 19.505C15.6132 19.6942 15.1105 19.7437 14.6256 19.6473C14.1406 19.5508 13.6951 19.3127 13.3455 18.9631C12.9959 18.6135 12.7578 18.168 12.6613 17.683C12.5649 17.1981 12.6144 16.6954 12.8036 16.2386C12.9928 15.7818 13.3132 15.3913 13.7244 15.1166C14.1355 14.8419 14.6188 14.6953 15.1133 14.6953C15.7763 14.6953 16.4122 14.9587 16.881 15.4275C17.3499 15.8964 17.6133 16.5323 17.6133 17.1953ZM22.6133 27.1953C22.6133 26.2008 22.2182 25.2469 21.5149 24.5437C20.8117 23.8404 19.8578 23.4453 18.8633 23.4453H11.3633C10.3687 23.4453 9.41489 23.8404 8.71163 24.5437C8.00837 25.2469 7.61328 26.2008 7.61328 27.1953V30.9453H10.1133V27.1953C10.1133 26.8638 10.245 26.5459 10.4794 26.3114C10.7138 26.077 11.0318 25.9453 11.3633 25.9453H18.8633C19.1948 25.9453 19.5127 26.077 19.7472 26.3114C19.9816 26.5459 20.1133 26.8638 20.1133 27.1953V30.9453H22.6133V27.1953ZM27.6133 5.94531C27.6133 4.95641 27.32 3.98971 26.7706 3.16746C26.2212 2.34522 25.4403 1.70436 24.5267 1.32592C23.6131 0.947479 22.6077 0.848462 21.6378 1.04139C20.6679 1.23431 19.777 1.71052 19.0777 2.40978C18.3785 3.10904 17.9023 3.99996 17.7094 4.96986C17.5164 5.93977 17.6154 6.9451 17.9939 7.85873C18.3723 8.77236 19.0132 9.55326 19.8354 10.1027C20.6577 10.6521 21.6244 10.9453 22.6133 10.9453C23.9394 10.9453 25.2111 10.4185 26.1488 9.48085C27.0865 8.54317 27.6133 7.2714 27.6133 5.94531ZM25.1133 5.94531C25.1133 6.43977 24.9667 6.92312 24.692 7.33424C24.4173 7.74536 24.0268 8.06579 23.57 8.25501C23.1132 8.44423 22.6105 8.49374 22.1256 8.39728C21.6406 8.30082 21.1951 8.06271 20.8455 7.71308C20.4959 7.36345 20.2578 6.91799 20.1613 6.43304C20.0649 5.94809 20.1144 5.44542 20.3036 4.98861C20.4928 4.53179 20.8132 4.14134 21.2244 3.86664C21.6355 3.59194 22.1188 3.44531 22.6133 3.44531C23.2763 3.44531 23.9122 3.70871 24.381 4.17755C24.8499 4.64639 25.1133 5.28227 25.1133 5.94531ZM12.6133 5.94531C12.6133 4.95641 12.32 3.98971 11.7706 3.16746C11.2212 2.34522 10.4403 1.70436 9.5267 1.32592C8.61307 0.947479 7.60773 0.848462 6.63783 1.04139C5.66792 1.23431 4.77701 1.71052 4.07775 2.40978C3.37848 3.10904 2.90228 3.99996 2.70935 4.96986C2.51643 5.93977 2.61545 6.9451 2.99388 7.85873C3.37232 8.77236 4.01318 9.55326 4.83543 10.1027C5.65768 10.6521 6.62437 10.9453 7.61328 10.9453C8.93936 10.9453 10.2111 10.4185 11.1488 9.48085C12.0865 8.54317 12.6133 7.2714 12.6133 5.94531ZM10.1133 5.94531C10.1133 6.43977 9.96666 6.92312 9.69196 7.33424C9.41725 7.74536 9.0268 8.06579 8.56999 8.25501C8.11317 8.44423 7.61051 8.49374 7.12556 8.39728C6.6406 8.30082 6.19515 8.06271 5.84551 7.71308C5.49588 7.36345 5.25778 6.91799 5.16132 6.43304C5.06485 5.94809 5.11436 5.44542 5.30358 4.98861C5.4928 4.53179 5.81323 4.14134 6.22436 3.86664C6.63548 3.59194 7.11883 3.44531 7.61328 3.44531C8.27632 3.44531 8.91221 3.70871 9.38105 4.17755C9.84989 4.64639 10.1133 5.28227 10.1133 5.94531Z" fill="white"/>
</g>
<defs>
<clipPath id="clip0_6725_426">
<rect width="30" height="30" fill="white" transform="translate(0.113281 0.945312)"/>
</clipPath>
</defs>
</svg>
