<svg width="31" height="31" viewBox="0 0 31 31" fill="none" xmlns="http://www.w3.org/2000/svg">
<g clip-path="url(#clip0_6725_456)">
<path d="M13.8633 14.6953H0.113281V4.69531C0.113281 3.70075 0.508369 2.74692 1.21163 2.04366C1.91489 1.3404 2.86872 0.945313 3.86328 0.945313L13.8633 0.945312V14.6953ZM2.61328 12.1953H11.3633V3.44531H3.86328C3.53176 3.44531 3.21382 3.57701 2.9794 3.81143C2.74498 4.04585 2.61328 4.36379 2.61328 4.69531V12.1953Z" fill="white"/>
<path d="M30.1133 14.6953H16.3633V0.945312H26.3633C27.3578 0.945313 28.3117 1.3404 29.0149 2.04366C29.7182 2.74692 30.1133 3.70075 30.1133 4.69531V14.6953ZM18.8633 12.1953H27.6133V4.69531C27.6133 4.36379 27.4816 4.04585 27.2472 3.81143C27.0127 3.57701 26.6948 3.44531 26.3633 3.44531H18.8633V12.1953Z" fill="white"/>
<path d="M13.8633 30.9453H3.86328C2.86872 30.9453 1.91489 30.5502 1.21163 29.847C0.508369 29.1437 0.113281 28.1899 0.113281 27.1953L0.113281 17.1953H13.8633V30.9453ZM2.61328 19.6953V27.1953C2.61328 27.5268 2.74498 27.8448 2.9794 28.0792C3.21382 28.3136 3.53176 28.4453 3.86328 28.4453H11.3633V19.6953H2.61328Z" fill="white"/>
<path d="M26.3633 30.9453H16.3633V17.1953H30.1133V27.1953C30.1133 28.1899 29.7182 29.1437 29.0149 29.847C28.3117 30.5502 27.3578 30.9453 26.3633 30.9453ZM18.8633 28.4453H26.3633C26.6948 28.4453 27.0127 28.3136 27.2472 28.0792C27.4816 27.8448 27.6133 27.5268 27.6133 27.1953V19.6953H18.8633V28.4453Z" fill="white"/>
</g>
<defs>
<clipPath id="clip0_6725_456">
<rect width="30" height="30" fill="white" transform="translate(0.113281 0.945312)"/>
</clipPath>
</defs>
</svg>
