<svg width="31" height="31" viewBox="0 0 31 31" fill="none" xmlns="http://www.w3.org/2000/svg">
<g clip-path="url(#clip0_6725_413)">
<path d="M3.36328 27.1953V4.69531C3.36328 4.36379 3.49498 4.04585 3.7294 3.81143C3.96382 3.57701 4.28176 3.44531 4.61328 3.44531H10.8633V0.945312H4.61328C3.61872 0.945313 2.66489 1.3404 1.96163 2.04366C1.25837 2.74692 0.863281 3.70075 0.863281 4.69531L0.863281 27.1953C0.863281 28.1899 1.25837 29.1437 1.96163 29.847C2.66489 30.5502 3.61872 30.9453 4.61328 30.9453H10.8633V28.4453H4.61328C4.28176 28.4453 3.96382 28.3136 3.7294 28.0792C3.49498 27.8448 3.36328 27.5268 3.36328 27.1953Z" fill="#FFC862"/>
<path d="M29.767 13.294L24.0345 7.56152L22.267 9.32902L27.597 14.659L7.11328 14.6953V17.1953L27.667 17.159L22.2645 22.5615L24.032 24.329L29.7645 18.5965C30.4679 17.8936 30.8633 16.9402 30.8637 15.9458C30.8642 14.9514 30.4697 13.9976 29.767 13.294Z" fill="#FFC862"/>
</g>
<defs>
<clipPath id="clip0_6725_413">
<rect width="30" height="30" fill="white" transform="translate(0.863281 0.945312)"/>
</clipPath>
</defs>
</svg>
