<svg width="31" height="31" viewBox="0 0 31 31" fill="none" xmlns="http://www.w3.org/2000/svg">
<g clip-path="url(#clip0_6725_419)">
<path d="M13.7785 4.38265C13.5102 3.39548 12.9245 2.52403 12.1118 1.90273C11.2991 1.28144 10.3046 0.944824 9.28162 0.944824C8.25865 0.944824 7.2641 1.28144 6.4514 1.90273C5.63871 2.52403 5.05304 3.39548 4.78475 4.38265H0.114746V6.88265H4.78475C5.05304 7.86981 5.63871 8.74127 6.4514 9.36256C7.2641 9.98386 8.25865 10.3205 9.28162 10.3205C10.3046 10.3205 11.2991 9.98386 12.1118 9.36256C12.9245 8.74127 13.5102 7.86981 13.7785 6.88265H30.1147V4.38265H13.7785ZM9.281 7.82015C8.84835 7.82015 8.42542 7.69185 8.06569 7.45149C7.70595 7.21112 7.42558 6.86948 7.26001 6.46977C7.09444 6.07005 7.05112 5.63022 7.13553 5.20589C7.21993 4.78155 7.42827 4.39178 7.7342 4.08585C8.04013 3.77992 8.4299 3.57159 8.85424 3.48718C9.27857 3.40278 9.7184 3.44609 10.1181 3.61166C10.5178 3.77723 10.8595 4.05761 11.0998 4.41734C11.3402 4.77707 11.4685 5.2 11.4685 5.63265C11.4675 6.2125 11.2367 6.76833 10.8267 7.17835C10.4167 7.58837 9.86085 7.81916 9.281 7.82015Z" fill="white"/>
<path d="M20.9485 11.2578C19.9266 11.2615 18.9339 11.5994 18.1221 12.2201C17.3102 12.8408 16.7238 13.7101 16.4522 14.6953H0.114746V17.1953H16.4522C16.7201 18.1827 17.3055 19.0545 18.1182 19.676C18.9308 20.2976 19.9254 20.6344 20.9485 20.6344C21.9716 20.6344 22.9662 20.2976 23.7788 19.676C24.5915 19.0545 25.1769 18.1827 25.4447 17.1953H30.1147V14.6953H25.4447C25.1732 13.7101 24.5868 12.8408 23.7749 12.2201C22.9631 11.5994 21.9704 11.2615 20.9485 11.2578ZM20.9485 18.1328C20.5159 18.1328 20.0929 18.0045 19.7332 17.7642C19.3735 17.5238 19.0931 17.1821 18.9275 16.7824C18.7619 16.3827 18.7186 15.9429 18.803 15.5186C18.8874 15.0942 19.0958 14.7044 19.4017 14.3985C19.7076 14.0926 20.0974 13.8842 20.5217 13.7998C20.9461 13.7154 21.3859 13.7588 21.7856 13.9243C22.1853 14.0899 22.527 14.3703 22.7673 14.73C23.0077 15.0897 23.136 15.5127 23.136 15.9453C23.1353 16.5253 22.9047 17.0813 22.4946 17.4914C22.0845 17.9015 21.5285 18.1322 20.9485 18.1328Z" fill="white"/>
<path d="M9.281 21.5703C8.25842 21.5732 7.26491 21.9107 6.4523 22.5315C5.63968 23.1522 5.05268 24.022 4.781 25.0078H0.114746V27.5078H4.78475C5.05304 28.495 5.63871 29.3664 6.4514 29.9877C7.2641 30.609 8.25865 30.9456 9.28162 30.9456C10.3046 30.9456 11.2991 30.609 12.1118 29.9877C12.9245 29.3664 13.5102 28.495 13.7785 27.5078H30.1147V25.0078H13.7785C13.5069 24.0224 12.9203 23.1529 12.1082 22.5322C11.2961 21.9115 10.3031 21.5737 9.281 21.5703ZM9.281 28.4453C8.84835 28.4453 8.42542 28.317 8.06569 28.0767C7.70595 27.8363 7.42558 27.4946 7.26001 27.0949C7.09444 26.6952 7.05112 26.2554 7.13553 25.8311C7.21993 25.4067 7.42827 25.0169 7.7342 24.711C8.04013 24.4051 8.4299 24.1968 8.85424 24.1123C9.27857 24.0279 9.7184 24.0713 10.1181 24.2368C10.5178 24.4024 10.8595 24.6828 11.0998 25.0425C11.3402 25.4022 11.4685 25.8252 11.4685 26.2578C11.4675 26.8377 11.2367 27.3935 10.8267 27.8035C10.4167 28.2135 9.86085 28.4443 9.281 28.4453Z" fill="white"/>
</g>
<defs>
<clipPath id="clip0_6725_419">
<rect width="30" height="30" fill="white" transform="translate(0.114746 0.945312)"/>
</clipPath>
</defs>
</svg>
