<svg width="31" height="31" viewBox="0 0 31 31" fill="none" xmlns="http://www.w3.org/2000/svg">
<g clip-path="url(#clip0_6725_430)">
<path d="M26.3633 2.19531H3.86328C1.79578 2.19531 0.113281 3.87781 0.113281 5.94531V29.6953H30.1133V5.94531C30.1133 3.87781 28.4308 2.19531 26.3633 2.19531ZM27.6133 27.1953H2.61328V5.94531C2.61328 5.25656 3.17453 4.69531 3.86328 4.69531H26.3633C27.052 4.69531 27.6133 5.25656 27.6133 5.94531V27.1953ZM12.6133 8.44531H23.8633V10.9453H12.6133V8.44531ZM10.1133 9.69531C10.1133 10.7303 9.27328 11.5703 8.23828 11.5703C7.20328 11.5703 6.36328 10.7303 6.36328 9.69531C6.36328 8.66031 7.20328 7.82031 8.23828 7.82031C9.27328 7.82031 10.1133 8.66031 10.1133 9.69531ZM12.6133 14.6953H23.8633V17.1953H12.6133V14.6953ZM10.1133 15.9453C10.1133 16.9803 9.27328 17.8203 8.23828 17.8203C7.20328 17.8203 6.36328 16.9803 6.36328 15.9453C6.36328 14.9103 7.20328 14.0703 8.23828 14.0703C9.27328 14.0703 10.1133 14.9103 10.1133 15.9453ZM12.6133 20.9453H23.8633V23.4453H12.6133V20.9453ZM10.1133 22.1953C10.1133 23.2303 9.27328 24.0703 8.23828 24.0703C7.20328 24.0703 6.36328 23.2303 6.36328 22.1953C6.36328 21.1603 7.20328 20.3203 8.23828 20.3203C9.27328 20.3203 10.1133 21.1603 10.1133 22.1953Z" fill="white"/>
</g>
<defs>
<clipPath id="clip0_6725_430">
<rect width="30" height="30" fill="white" transform="translate(0.113281 0.945312)"/>
</clipPath>
</defs>
</svg>
