<svg width="31" height="31" viewBox="0 0 31 31" fill="none" xmlns="http://www.w3.org/2000/svg">
<g clip-path="url(#clip0_6725_438)">
<path d="M30.1133 28.4453C30.1133 29.8266 28.9945 30.9453 27.6133 30.9453C26.6908 30.9453 25.8933 30.4391 25.4595 29.6953H20.1133V18.4453H22.6133V27.1953H25.4595C25.892 26.4516 26.6895 25.9453 27.6133 25.9453C28.9945 25.9453 30.1133 27.0641 30.1133 28.4453ZM16.3633 26.2916V18.4453H13.8633V26.2916C13.1195 26.7241 12.6133 27.5216 12.6133 28.4453C12.6133 29.8266 13.732 30.9453 15.1133 30.9453C16.4945 30.9453 17.6133 29.8266 17.6133 28.4453C17.6133 27.5228 17.107 26.7253 16.3633 26.2916ZM7.61328 27.1953H4.76703C4.33453 26.4516 3.53703 25.9453 2.61328 25.9453C1.23203 25.9453 0.113281 27.0641 0.113281 28.4453C0.113281 29.8266 1.23203 30.9453 2.61328 30.9453C3.53578 30.9453 4.33328 30.4391 4.76703 29.6953H10.1133V18.4453H7.61328V27.1953ZM21.152 9.08281L21.812 9.24156C24.492 9.88406 26.3633 12.2541 26.3633 15.0078C26.3633 16.3703 25.8908 17.6166 25.1133 18.6166V21.9966C27.367 20.4816 28.8633 17.9216 28.8633 15.0078C28.8633 11.3191 26.4995 8.11156 23.0395 6.99156C21.4695 3.34906 17.862 0.945312 13.8633 0.945312C8.34953 0.945312 3.86328 5.43156 3.86328 10.9453C3.86328 11.3503 3.88953 11.7578 3.93953 12.1653C2.33078 13.3328 1.36328 15.1878 1.36328 17.1953C1.36328 19.7503 2.91203 21.9366 5.11328 22.9053V19.9591C4.35203 19.2766 3.86328 18.2978 3.86328 17.1953C3.86328 15.8116 4.63953 14.5441 5.88953 13.8891L6.73078 13.4491L6.53203 12.5203C6.41953 11.9966 6.36328 11.4666 6.36328 10.9441C6.36328 6.80781 9.72703 3.44406 13.8633 3.44406C17.027 3.44406 19.8658 5.45156 20.9258 8.44156L21.152 9.08156V9.08281Z" fill="white"/>
</g>
<defs>
<clipPath id="clip0_6725_438">
<rect width="30" height="30" fill="white" transform="translate(0.113281 0.945312)"/>
</clipPath>
</defs>
</svg>
