<svg width="31" height="31" viewBox="0 0 31 31" fill="none" xmlns="http://www.w3.org/2000/svg">
<g clip-path="url(#clip0_6725_452)">
<path d="M15.1133 0.945312C6.84203 0.945312 0.113281 7.67406 0.113281 15.9453C0.113281 24.2166 6.84203 30.9453 15.1133 30.9453C23.3845 30.9453 30.1133 24.2166 30.1133 15.9453C30.1133 7.67406 23.3845 0.945312 15.1133 0.945312ZM15.1133 28.4453C8.22078 28.4453 2.61328 22.8378 2.61328 15.9453C2.61328 9.05281 8.22078 3.44531 15.1133 3.44531C22.0058 3.44531 27.6133 9.05281 27.6133 15.9453C27.6133 22.8378 22.0058 28.4453 15.1133 28.4453ZM12.6133 13.4453C12.6133 13.9178 12.952 14.3178 13.4183 14.3953L17.2195 15.0291C18.897 15.3078 20.1133 16.7453 20.1133 18.4453C20.1133 20.5128 18.4308 22.1953 16.3633 22.1953V24.6953H13.8633V22.1953C11.7958 22.1953 10.1133 20.5128 10.1133 18.4453H12.6133C12.6133 19.1353 13.1733 19.6953 13.8633 19.6953H16.3633C17.0533 19.6953 17.6133 19.1353 17.6133 18.4453C17.6133 17.9728 17.2745 17.5728 16.8083 17.4953L13.007 16.8616C11.3295 16.5828 10.1133 15.1453 10.1133 13.4453C10.1133 11.3778 11.7958 9.69531 13.8633 9.69531V7.19531H16.3633V9.69531C18.4308 9.69531 20.1133 11.3778 20.1133 13.4453H17.6133C17.6133 12.7566 17.0533 12.1953 16.3633 12.1953H13.8633C13.1733 12.1953 12.6133 12.7566 12.6133 13.4453Z" fill="white"/>
</g>
<defs>
<clipPath id="clip0_6725_452">
<rect width="30" height="30" fill="white" transform="translate(0.113281 0.945312)"/>
</clipPath>
</defs>
</svg>
