<svg width="31" height="31" viewBox="0 0 31 31" fill="none" xmlns="http://www.w3.org/2000/svg">
<g clip-path="url(#clip0_6725_442)">
<path d="M7.61328 15.9453C11.7558 15.9453 15.1133 12.5878 15.1133 8.44531C15.1133 4.30281 11.7558 0.945313 7.61328 0.945313C3.47078 0.945313 0.113281 4.30281 0.113281 8.44531C0.113281 12.5878 3.47078 15.9453 7.61328 15.9453ZM6.20453 3.69531H6.61328V2.19531H8.61328V3.69531H8.86328C10.3645 3.69531 11.5995 4.85156 11.727 6.32031H9.70203C9.59453 5.95906 9.25953 5.69531 8.86328 5.69531H6.20453C5.80953 5.69531 5.48828 6.01656 5.48828 6.41281C5.48828 6.75281 5.73078 7.04906 6.06453 7.11531L9.55453 7.81406C10.8208 8.06656 11.7383 9.18781 11.7383 10.4778C11.7383 11.9766 10.5195 13.1941 9.02078 13.1941H8.61328V14.6941H6.61328V13.1941H6.36328C4.86203 13.1941 3.62703 12.0378 3.49953 10.5691H5.52453C5.63203 10.9303 5.96703 11.1941 6.36328 11.1941H9.02078C9.41578 11.1941 9.73828 10.8728 9.73828 10.4766C9.73828 10.1366 9.49578 9.84031 9.16078 9.77281L5.67203 9.07406C4.40578 8.82031 3.48828 7.70031 3.48828 6.41031C3.48828 4.91156 4.70703 3.69406 6.20453 3.69406V3.69531ZM21.3633 4.07031C21.3633 2.34406 22.762 0.945312 24.4883 0.945312C26.2145 0.945312 27.6133 2.34406 27.6133 4.07031C27.6133 5.79656 26.2145 7.19531 24.4883 7.19531C22.762 7.19531 21.3633 5.79656 21.3633 4.07031ZM29.162 22.2078L21.3795 30.9453H18.0308L27.292 20.5516C27.292 20.5516 27.292 20.5516 27.2933 20.5503C27.752 20.0353 27.7108 19.2403 27.202 18.7753C26.9533 18.5491 26.632 18.4453 26.292 18.4478C25.9545 18.4641 25.6433 18.6091 25.4183 18.8591L19.8758 24.9478C19.392 26.2803 18.207 27.3028 16.742 27.5116L10.2908 28.4328L9.93703 25.9591L16.3883 25.0378C17.087 24.9378 17.6133 24.3303 17.6133 23.6241C17.6133 22.8366 16.972 22.1966 16.1845 22.1966H3.86328C3.17328 22.1966 2.61328 22.7578 2.61328 23.4466V30.9466H0.113281V23.4466C0.113281 21.3791 1.79578 19.6966 3.86328 19.6966H16.1845C17.6095 19.6966 18.8483 20.4678 19.537 21.6066L23.567 17.1778C24.242 16.4341 25.1683 15.9978 26.1733 15.9516C27.1883 15.8953 28.1408 16.2528 28.8845 16.9291C30.3995 18.3116 30.5233 20.6791 29.1608 22.2103L29.162 22.2078ZM30.1133 11.5703V15.2891C29.372 14.6366 28.5208 14.1553 27.6133 13.8453V11.5703C27.6133 11.2253 27.3333 10.9453 26.9883 10.9453H21.9883C21.6433 10.9453 21.3633 11.2253 21.3633 11.5703V14.5653C20.7658 14.9391 20.212 15.4041 19.7333 15.9453H18.8633V11.5703C18.8633 9.84406 20.262 8.44531 21.9883 8.44531H26.9883C28.7145 8.44531 30.1133 9.84406 30.1133 11.5703Z" fill="white"/>
</g>
<defs>
<clipPath id="clip0_6725_442">
<rect width="30" height="30" fill="white" transform="translate(0.113281 0.945312)"/>
</clipPath>
</defs>
</svg>
