<svg width="31" height="31" viewBox="0 0 31 31" fill="none" xmlns="http://www.w3.org/2000/svg">
<g clip-path="url(#clip0_6725_434)">
<path d="M16.3633 10.3203C16.3633 11.3553 15.5233 12.1953 14.4883 12.1953C13.4533 12.1953 12.6133 11.3553 12.6133 10.3203C12.6133 9.28531 13.4533 8.44531 14.4883 8.44531C15.5233 8.44531 16.3633 9.28531 16.3633 10.3203ZM6.98828 4.69531C8.02328 4.69531 8.86328 3.85531 8.86328 2.82031C8.86328 1.78531 8.02328 0.945312 6.98828 0.945312C5.95328 0.945312 5.11328 1.78531 5.11328 2.82031C5.11328 3.85531 5.95328 4.69531 6.98828 4.69531ZM8.63828 12.1953L15.9308 0.945312H12.8383L5.54703 12.1953H8.63828ZM29.157 17.2141L16.922 30.9453H3.86328C1.79578 30.9453 0.113281 29.2628 0.113281 27.1953V18.4453C0.113281 16.3778 1.79578 14.6953 3.86328 14.6953H16.1858C17.6095 14.6953 18.8583 15.4566 19.547 16.5941L23.567 12.1766C24.2445 11.4328 25.1695 10.9966 26.1745 10.9503C27.1845 10.8978 28.142 11.2503 28.8845 11.9278C30.402 13.3116 30.5233 15.6828 29.157 17.2141ZM27.1995 13.7753C26.9508 13.5478 26.6258 13.4416 26.2895 13.4478C25.952 13.4641 25.642 13.6091 25.4145 13.8591L19.882 19.9391C19.4008 21.2778 18.2083 22.3028 16.7395 22.5128L10.2883 23.4341L9.93453 20.9603L16.3858 20.0391C17.0845 19.9391 17.612 19.3316 17.612 18.6253C17.612 17.8378 16.972 17.1978 16.1845 17.1978H3.86328C3.17453 17.1978 2.61328 17.7591 2.61328 18.4478V27.1978C2.61328 27.8866 3.17453 28.4478 3.86328 28.4478H15.8033L27.292 15.5528C27.7508 15.0378 27.7095 14.2416 27.2008 13.7766L27.1995 13.7753Z" fill="white"/>
</g>
<defs>
<clipPath id="clip0_6725_434">
<rect width="30" height="30" fill="white" transform="translate(0.113281 0.945312)"/>
</clipPath>
</defs>
</svg>
