<svg width="28" height="28" viewBox="0 0 28 28" fill="none" xmlns="http://www.w3.org/2000/svg">
<rect x="-0.318182" y="0.318182" width="27.3636" height="27.3636" rx="13.6818" transform="matrix(-1 0 0 1 27.3636 0)" stroke="#000" stroke-width="0.636364"/>
<path d="M8.45903 13.55C8.21051 13.7985 8.21051 14.2015 8.45903 14.45L12.5088 18.4998C12.7573 18.7483 13.1603 18.7483 13.4088 18.4998C13.6573 18.2513 13.6573 17.8483 13.4088 17.5998L9.80896 14L13.4088 10.4002C13.6573 10.1517 13.6573 9.74875 13.4088 9.50023C13.1603 9.25171 12.7573 9.25171 12.5088 9.50023L8.45903 13.55ZM19.0908 14V13.3636L8.909 13.3636V14V14.6364L19.0908 14.6364V14Z" fill="#000"/>
</svg>
