<svg width="19" height="22" viewBox="0 0 19 22" fill="none" xmlns="http://www.w3.org/2000/svg">
<path d="M8.6 2.586C8.535 2.796 8.5 3.019 8.5 3.25C8.5 3.664 8.836 4 9.25 4H13.75C13.9489 4 14.1397 3.92098 14.2803 3.78033C14.421 3.63968 14.5 3.44891 14.5 3.25C14.5001 3.02491 14.4664 2.80109 14.4 2.586M8.6 2.586C8.74203 2.1267 9.02738 1.72493 9.41426 1.43954C9.80115 1.15414 10.2692 1.00011 10.75 1H12.25C13.262 1 14.117 1.668 14.4 2.586M8.6 2.586C8.224 2.609 7.85 2.636 7.476 2.666C6.345 2.76 5.5 3.723 5.5 4.858V7M14.4 2.586C14.776 2.609 15.15 2.636 15.524 2.666C16.655 2.76 17.5 3.723 17.5 4.858V15.25C17.5 15.8467 17.2629 16.419 16.841 16.841C16.419 17.2629 15.8467 17.5 15.25 17.5H13M5.5 7H2.125C1.504 7 1 7.504 1 8.125V19.375C1 19.996 1.504 20.5 2.125 20.5H11.875C12.496 20.5 13 19.996 13 19.375V17.5M5.5 7H11.875C12.496 7 13 7.504 13 8.125V17.5M4.75 14.5L6.25 16L9.25 12.25" stroke="white" stroke-width="1.5" stroke-linecap="round" stroke-linejoin="round"/>
</svg>
