<svg width="31" height="31" viewBox="0 0 31 31" fill="none" xmlns="http://www.w3.org/2000/svg">
<g clip-path="url(#clip0_6722_40)">
<path d="M15.6621 0.946777C7.39086 0.946777 0.662109 7.67553 0.662109 15.9468C0.662109 24.218 7.39086 30.9468 15.6621 30.9468C23.9334 30.9468 30.6621 24.218 30.6621 15.9468C30.6621 7.67553 23.9334 0.946777 15.6621 0.946777ZM10.6621 27.4018V24.6968C10.6621 24.0068 11.2234 23.4468 11.9121 23.4468H19.4121C20.1009 23.4468 20.6621 24.0068 20.6621 24.6968V27.4018C19.1296 28.073 17.4396 28.4468 15.6621 28.4468C13.8846 28.4468 12.1946 28.073 10.6621 27.4018ZM23.1621 25.9405V24.6968C23.1621 22.6293 21.4796 20.9468 19.4121 20.9468H11.9121C9.84461 20.9468 8.16211 22.6293 8.16211 24.6968V25.9405C5.12836 23.658 3.16211 20.028 3.16211 15.9468C3.16211 9.05428 8.76961 3.44678 15.6621 3.44678C22.5546 3.44678 28.1621 9.05428 28.1621 15.9468C28.1621 20.0268 26.1959 23.658 23.1621 25.9405ZM15.6621 8.44678C12.9046 8.44678 10.6621 10.6893 10.6621 13.4468C10.6621 16.2043 12.9046 18.4468 15.6621 18.4468C18.4196 18.4468 20.6621 16.2043 20.6621 13.4468C20.6621 10.6893 18.4196 8.44678 15.6621 8.44678ZM15.6621 15.9468C14.2834 15.9468 13.1621 14.8255 13.1621 13.4468C13.1621 12.068 14.2834 10.9468 15.6621 10.9468C17.0409 10.9468 18.1621 12.068 18.1621 13.4468C18.1621 14.8255 17.0409 15.9468 15.6621 15.9468Z" fill="#202020"/>
</g>
<defs>
<clipPath id="clip0_6722_40">
<rect width="30" height="30" fill="white" transform="translate(0.662109 0.946777)"/>
</clipPath>
</defs>
</svg>
