<svg width="24" height="24" viewBox="0 0 24 24" fill="none" xmlns="http://www.w3.org/2000/svg">
<g style="mix-blend-mode:luminosity">
<path d="M8 11H5C3.343 11 2 9.657 2 8V5C2 3.343 3.343 2 5 2H8C9.657 2 11 3.343 11 5V8C11 9.657 9.657 11 8 11Z" fill="#E5282B"/>
<path opacity="0.35" d="M19 11H16C14.343 11 13 9.657 13 8V5C13 3.343 14.343 2 16 2H19C20.657 2 22 3.343 22 5V8C22 9.657 20.657 11 19 11Z" fill="#A5ABB3"/>
<path opacity="0.35" d="M8 22H5C3.343 22 2 20.657 2 19V16C2 14.343 3.343 13 5 13H8C9.657 13 11 14.343 11 16V19C11 20.657 9.657 22 8 22Z" fill="#A5ABB3"/>
<path opacity="0.35" d="M19 22H16C14.343 22 13 20.657 13 19V16C13 14.343 14.343 13 16 13H19C20.657 13 22 14.343 22 16V19C22 20.657 20.657 22 19 22Z" fill="#A5ABB3"/>
<path d="M4.99965 14.4999C4.99965 15.3299 4.32965 15.9999 3.49965 15.9999C2.88965 15.9999 2.35965 15.6299 2.13965 15.1099C2.42965 14.1699 3.16965 13.4299 4.10965 13.1399C4.62965 13.3599 4.99965 13.8899 4.99965 14.4999Z" fill="#E5282B"/>
<path d="M10.86 15.1099C10.64 15.6299 10.11 15.9999 9.5 15.9999C8.67 15.9999 8 15.3299 8 14.4999C8 13.8899 8.37 13.3599 8.89 13.1399C9.83 13.4299 10.57 14.1699 10.86 15.1099Z" fill="#E5282B"/>
<path d="M4.99965 20.5C4.99965 21.11 4.62965 21.64 4.10965 21.86C3.16965 21.57 2.42965 20.83 2.13965 19.89C2.35965 19.37 2.88965 19 3.49965 19C4.32965 19 4.99965 19.67 4.99965 20.5Z" fill="#E5282B"/>
<path d="M10.86 19.89C10.57 20.83 9.83 21.57 8.89 21.86C8.37 21.64 8 21.11 8 20.5C8 19.67 8.67 19 9.5 19C10.11 19 10.64 19.37 10.86 19.89Z" fill="#E5282B"/>
<path d="M6.5 19C7.32843 19 8 18.3284 8 17.5C8 16.6716 7.32843 16 6.5 16C5.67157 16 5 16.6716 5 17.5C5 18.3284 5.67157 19 6.5 19Z" fill="#E5282B"/>
<path d="M21.71 14.71L14.71 21.71C14.09 21.41 13.59 20.91 13.29 20.29L20.29 13.29C20.91 13.59 21.41 14.09 21.71 14.71Z" fill="#E5282B"/>
<path d="M17.42 13L13 17.42V16C13 14.34 14.34 13 16 13H17.42Z" fill="#E5282B"/>
<path d="M22.0001 17.5801V19.0001C22.0001 20.6601 20.6601 22.0001 19.0001 22.0001H17.5801L22.0001 17.5801Z" fill="#E5282B"/>
</g>
</svg>
