<svg width="24" height="24" viewBox="0 0 24 24" fill="none" xmlns="http://www.w3.org/2000/svg">
<path d="M18 14.8027C18 15.9432 17.5418 16.8613 16.6255 17.5571C15.7092 18.2457 14.4263 18.6581 12.7769 18.7944V21H11.1394V18.8374C9.19522 18.8016 7.49004 18.4931 6.0239 17.9121V15.0717C6.71713 15.3802 7.5498 15.6527 8.52191 15.8894C9.50199 16.1261 10.3745 16.266 11.1394 16.309V12.9737L10.3386 12.694C8.76096 12.1345 7.64143 11.5284 6.98008 10.8757C6.32669 10.2158 6 9.40167 6 8.43335C6 7.39331 6.4502 6.53975 7.3506 5.87268C8.25896 5.19845 9.52191 4.7896 11.1394 4.64614V3H12.7769V4.60311C14.6016 4.67484 16.251 5.00478 17.7251 5.59295L16.6016 8.11058C15.3586 7.65152 14.0837 7.37179 12.7769 7.27137V10.4453C14.3307 10.9833 15.4343 11.4495 16.0876 11.844C16.749 12.2385 17.2311 12.6724 17.5339 13.1458C17.8446 13.6192 18 14.1715 18 14.8027ZM14.4024 14.9641C14.4024 14.6629 14.2669 14.4082 13.996 14.2002C13.7251 13.9922 13.3187 13.777 12.7769 13.5547V16.2337C13.8606 16.0687 14.4024 15.6455 14.4024 14.9641ZM9.59761 8.43335C9.59761 8.74895 9.71713 9.01076 9.95618 9.21877C10.2032 9.41961 10.5976 9.62761 11.1394 9.8428V7.31441C10.1116 7.45069 9.59761 7.82367 9.59761 8.43335Z" fill="#A5ABB3"/>
</svg>
