<svg width="30" height="25" viewBox="0 0 30 25" fill="none" xmlns="http://www.w3.org/2000/svg">
<g filter="url(#filter0_d_37_1002)">
<path d="M5.05176 8.822C4.98275 8.61459 4.98275 8.39041 5.05176 8.183C6.43876 4.01 10.3758 1 15.0158 1C19.6538 1 23.5888 4.007 24.9788 8.178C25.0488 8.385 25.0488 8.609 24.9788 8.817C23.5928 12.99 19.6558 16 15.0158 16C10.3778 16 6.44176 12.993 5.05176 8.822Z" stroke="white" stroke-width="1.5" stroke-linecap="round" stroke-linejoin="round" shape-rendering="crispEdges"/>
</g>
<g filter="url(#filter1_d_37_1002)">
<path d="M18.0156 8.5C18.0156 9.39668 17.6996 10.0587 17.1369 10.6213C16.5743 11.1839 15.8113 11.5 15.0156 11.5C14.22 11.5 13.4569 11.1839 12.8943 10.6213C12.3317 10.0587 12.0156 9.29565 12.0156 8.5C12.0156 7.70435 12.3317 6.94129 12.8943 6.37868C13.4569 5.81607 14.22 5.5 15.0156 5.5C15.8113 5.5 16.5743 5.81607 17.1369 6.37868C17.6996 6.94129 18.0156 7.60332 18.0156 8.5Z" stroke="white" stroke-width="1.5" stroke-linecap="round" stroke-linejoin="round" shape-rendering="crispEdges"/>
</g>
<defs>
<filter id="filter0_d_37_1002" x="0.25" y="0.25" width="29.5312" height="24.5" filterUnits="userSpaceOnUse" color-interpolation-filters="sRGB">
<feFlood flood-opacity="0" result="BackgroundImageFix"/>
<feColorMatrix in="SourceAlpha" type="matrix" values="0 0 0 0 0 0 0 0 0 0 0 0 0 0 0 0 0 0 127 0" result="hardAlpha"/>
<feOffset dy="4"/>
<feGaussianBlur stdDeviation="2"/>
<feComposite in2="hardAlpha" operator="out"/>
<feColorMatrix type="matrix" values="0 0 0 0 0 0 0 0 0 0 0 0 0 0 0 0 0 0 0.25 0"/>
<feBlend mode="normal" in2="BackgroundImageFix" result="effect1_dropShadow_37_1002"/>
<feBlend mode="normal" in="SourceGraphic" in2="effect1_dropShadow_37_1002" result="shape"/>
</filter>
<filter id="filter1_d_37_1002" x="7.26562" y="4.75" width="15.5" height="15.5" filterUnits="userSpaceOnUse" color-interpolation-filters="sRGB">
<feFlood flood-opacity="0" result="BackgroundImageFix"/>
<feColorMatrix in="SourceAlpha" type="matrix" values="0 0 0 0 0 0 0 0 0 0 0 0 0 0 0 0 0 0 127 0" result="hardAlpha"/>
<feOffset dy="4"/>
<feGaussianBlur stdDeviation="2"/>
<feComposite in2="hardAlpha" operator="out"/>
<feColorMatrix type="matrix" values="0 0 0 0 0 0 0 0 0 0 0 0 0 0 0 0 0 0 0.25 0"/>
<feBlend mode="normal" in2="BackgroundImageFix" result="effect1_dropShadow_37_1002"/>
<feBlend mode="normal" in="SourceGraphic" in2="effect1_dropShadow_37_1002" result="shape"/>
</filter>
</defs>
</svg>
