<svg width="497" height="358" viewBox="0 0 497 358" fill="none" xmlns="http://www.w3.org/2000/svg">
<path d="M5.71674 306.167V248.781H28.3572C32.691 248.781 36.3896 249.557 39.4532 251.107C42.5354 252.639 44.8798 254.815 46.4863 257.636C48.1115 260.438 48.9241 263.735 48.9241 267.527C48.9241 271.338 48.1021 274.616 46.4583 277.362C44.8144 280.089 42.4327 282.182 39.3131 283.639C36.2122 285.096 32.4575 285.824 28.0489 285.824H12.8899V276.073H26.0875C28.4039 276.073 30.3279 275.756 31.8597 275.121C33.3915 274.485 34.531 273.533 35.2782 272.262C36.0441 270.992 36.427 269.414 36.427 267.527C36.427 265.622 36.0441 264.015 35.2782 262.708C34.531 261.4 33.3821 260.41 31.8317 259.737C30.2999 259.046 28.3665 258.701 26.0315 258.701H17.8495V306.167H5.71674ZM36.7072 280.052L50.9695 306.167H37.5758L23.6217 280.052H36.7072ZM57.4983 306.167V248.781H96.1663V258.785H69.6311V272.459H94.1769V282.462H69.6311V296.164H96.2784V306.167H57.4983ZM117.945 248.781V306.167H105.812V248.781H117.945ZM175.926 248.781V306.167H165.447L140.48 270.049H140.06V306.167H127.927V248.781H138.575L163.345 284.872H163.849V248.781H175.926ZM196.318 248.781L210.188 292.381H210.72L224.618 248.781H238.068L218.286 306.167H202.651L182.84 248.781H196.318ZM244.975 306.167V248.781H283.643V258.785H257.108V272.459H281.654V282.462H257.108V296.164H283.755V306.167H244.975ZM324.42 265.285C324.196 263.025 323.234 261.269 321.534 260.018C319.834 258.766 317.527 258.14 314.613 258.14C312.633 258.14 310.961 258.42 309.597 258.981C308.233 259.523 307.187 260.279 306.459 261.25C305.749 262.222 305.394 263.324 305.394 264.557C305.357 265.584 305.571 266.481 306.038 267.247C306.524 268.013 307.187 268.676 308.028 269.236C308.869 269.778 309.84 270.254 310.942 270.665C312.044 271.058 313.221 271.394 314.473 271.674L319.628 272.907C322.131 273.467 324.429 274.215 326.521 275.149C328.613 276.083 330.425 277.231 331.957 278.595C333.489 279.959 334.675 281.565 335.516 283.415C336.375 285.264 336.814 287.384 336.833 289.775C336.814 293.287 335.917 296.332 334.143 298.91C332.387 301.469 329.846 303.458 326.521 304.878C323.215 306.279 319.227 306.98 314.557 306.98C309.924 306.98 305.889 306.27 302.452 304.85C299.033 303.43 296.362 301.329 294.438 298.546C292.533 295.743 291.533 292.278 291.44 288.15H303.18C303.311 290.074 303.862 291.681 304.834 292.969C305.824 294.24 307.141 295.202 308.784 295.856C310.447 296.491 312.324 296.808 314.417 296.808C316.471 296.808 318.255 296.509 319.768 295.912C321.3 295.314 322.486 294.483 323.327 293.418C324.168 292.353 324.588 291.129 324.588 289.747C324.588 288.458 324.205 287.375 323.439 286.497C322.692 285.619 321.59 284.872 320.133 284.255C318.694 283.639 316.929 283.078 314.837 282.574L308.588 281.005C303.75 279.828 299.93 277.988 297.128 275.485C294.326 272.982 292.934 269.61 292.953 265.369C292.934 261.895 293.859 258.859 295.727 256.263C297.614 253.666 300.201 251.64 303.489 250.182C306.776 248.725 310.512 247.997 314.697 247.997C318.956 247.997 322.673 248.725 325.849 250.182C329.043 251.64 331.528 253.666 333.302 256.263C335.077 258.859 335.992 261.867 336.048 265.285H324.42ZM342.808 258.785V248.781H389.938V258.785H372.37V306.167H360.377V258.785H342.808ZM400.579 306.167H387.578L407.388 248.781H423.023L442.806 306.167H429.804L415.43 261.895H414.981L400.579 306.167ZM399.766 283.611H430.477V293.082H399.766V283.611ZM449.713 306.167V248.781H472.353C476.687 248.781 480.386 249.557 483.449 251.107C486.531 252.639 488.876 254.815 490.482 257.636C492.107 260.438 492.92 263.735 492.92 267.527C492.92 271.338 492.098 274.616 490.454 277.362C488.81 280.089 486.429 282.182 483.309 283.639C480.208 285.096 476.453 285.824 472.045 285.824H456.886V276.073H470.083C472.4 276.073 474.324 275.756 475.856 275.121C477.387 274.485 478.527 273.533 479.274 272.262C480.04 270.992 480.423 269.414 480.423 267.527C480.423 265.622 480.04 264.015 479.274 262.708C478.527 261.4 477.378 260.41 475.828 259.737C474.296 259.046 472.362 258.701 470.027 258.701H461.845V306.167H449.713ZM480.703 280.052L494.965 306.167H481.572L467.618 280.052H480.703Z" fill="#202020"/>
<path d="M129.368 336.263V357.167H125.581V336.263H129.368ZM156.395 336.263V357.167H153.027L143.177 342.928H143.004V357.167H139.217V336.263H142.606L152.445 350.512H152.629V336.263H156.395ZM169.067 336.263L174.507 352.717H174.721L180.151 336.263H184.316L176.946 357.167H172.272L164.912 336.263H169.067ZM192.818 357.167V336.263H206.414V339.437H196.605V345.113H205.709V348.287H196.605V353.993H206.495V357.167H192.818ZM216.026 357.167V336.263H223.864C225.47 336.263 226.818 336.542 227.906 337.1C229.002 337.658 229.829 338.441 230.387 339.448C230.952 340.448 231.234 341.615 231.234 342.949C231.234 344.289 230.948 345.453 230.377 346.439C229.812 347.419 228.978 348.178 227.876 348.716C226.773 349.246 225.419 349.512 223.813 349.512H218.23V346.368H223.303C224.242 346.368 225.011 346.239 225.61 345.98C226.209 345.715 226.651 345.33 226.937 344.827C227.229 344.316 227.376 343.69 227.376 342.949C227.376 342.207 227.229 341.574 226.937 341.05C226.644 340.519 226.198 340.118 225.6 339.846C225.001 339.567 224.229 339.427 223.283 339.427H219.812V357.167H216.026ZM226.825 347.695L231.999 357.167H227.774L222.691 347.695H226.825ZM251.829 342.01C251.733 341.118 251.332 340.424 250.624 339.927C249.923 339.431 249.011 339.182 247.889 339.182C247.099 339.182 246.422 339.301 245.858 339.54C245.293 339.778 244.861 340.101 244.561 340.509C244.262 340.918 244.109 341.384 244.102 341.908C244.102 342.343 244.201 342.721 244.398 343.041C244.602 343.36 244.878 343.633 245.225 343.857C245.572 344.075 245.956 344.259 246.378 344.408C246.8 344.558 247.225 344.684 247.654 344.786L249.614 345.276C250.403 345.46 251.162 345.708 251.89 346.021C252.625 346.334 253.281 346.729 253.86 347.205C254.445 347.681 254.908 348.256 255.248 348.93C255.588 349.604 255.758 350.393 255.758 351.298C255.758 352.523 255.445 353.601 254.819 354.534C254.193 355.459 253.288 356.184 252.104 356.708C250.927 357.225 249.501 357.483 247.827 357.483C246.201 357.483 244.789 357.232 243.592 356.728C242.401 356.225 241.469 355.49 240.795 354.523C240.128 353.557 239.767 352.38 239.713 350.992H243.438C243.493 351.72 243.717 352.326 244.112 352.809C244.507 353.292 245.021 353.652 245.653 353.891C246.293 354.129 247.008 354.248 247.797 354.248C248.62 354.248 249.342 354.125 249.961 353.88C250.587 353.629 251.077 353.282 251.431 352.839C251.784 352.39 251.965 351.866 251.972 351.267C251.965 350.723 251.805 350.274 251.492 349.92C251.179 349.559 250.74 349.26 250.175 349.022C249.617 348.777 248.964 348.559 248.215 348.369L245.837 347.756C244.116 347.314 242.755 346.644 241.754 345.745C240.761 344.84 240.264 343.639 240.264 342.142C240.264 340.911 240.598 339.832 241.264 338.907C241.938 337.981 242.853 337.263 244.01 336.753C245.167 336.236 246.477 335.977 247.94 335.977C249.423 335.977 250.723 336.236 251.839 336.753C252.962 337.263 253.843 337.974 254.482 338.886C255.122 339.791 255.452 340.832 255.473 342.01H251.829ZM268.67 336.263V357.167H264.883V336.263H268.67ZM297.198 346.715C297.198 348.967 296.776 350.897 295.932 352.502C295.095 354.102 293.952 355.326 292.502 356.177C291.06 357.028 289.423 357.453 287.593 357.453C285.762 357.453 284.123 357.028 282.673 356.177C281.231 355.32 280.087 354.091 279.244 352.492C278.407 350.886 277.988 348.961 277.988 346.715C277.988 344.463 278.407 342.537 279.244 340.938C280.087 339.332 281.231 338.104 282.673 337.253C284.123 336.403 285.762 335.977 287.593 335.977C289.423 335.977 291.06 336.403 292.502 337.253C293.952 338.104 295.095 339.332 295.932 340.938C296.776 342.537 297.198 344.463 297.198 346.715ZM293.391 346.715C293.391 345.13 293.142 343.792 292.645 342.704C292.155 341.608 291.475 340.781 290.604 340.223C289.733 339.659 288.729 339.376 287.593 339.376C286.457 339.376 285.453 339.659 284.582 340.223C283.711 340.781 283.027 341.608 282.53 342.704C282.04 343.792 281.795 345.13 281.795 346.715C281.795 348.301 282.04 349.641 282.53 350.737C283.027 351.825 283.711 352.652 284.582 353.217C285.453 353.775 286.457 354.054 287.593 354.054C288.729 354.054 289.733 353.775 290.604 353.217C291.475 352.652 292.155 351.825 292.645 350.737C293.142 349.641 293.391 348.301 293.391 346.715ZM323.705 336.263V357.167H320.336L310.487 342.928H310.313V357.167H306.526V336.263H309.915L319.755 350.512H319.938V336.263H323.705ZM333.58 357.167V336.263H347.175V339.437H337.366V345.113H346.471V348.287H337.366V353.993H347.257V357.167H333.58ZM368.148 342.01C368.052 341.118 367.651 340.424 366.943 339.927C366.242 339.431 365.33 339.182 364.208 339.182C363.418 339.182 362.741 339.301 362.177 339.54C361.612 339.778 361.18 340.101 360.88 340.509C360.581 340.918 360.428 341.384 360.421 341.908C360.421 342.343 360.52 342.721 360.717 343.041C360.921 343.36 361.197 343.633 361.544 343.857C361.891 344.075 362.275 344.259 362.697 344.408C363.119 344.558 363.544 344.684 363.973 344.786L365.933 345.276C366.722 345.46 367.481 345.708 368.209 346.021C368.944 346.334 369.6 346.729 370.179 347.205C370.764 347.681 371.227 348.256 371.567 348.93C371.907 349.604 372.077 350.393 372.077 351.298C372.077 352.523 371.764 353.601 371.138 354.534C370.512 355.459 369.607 356.184 368.423 356.708C367.246 357.225 365.82 357.483 364.146 357.483C362.52 357.483 361.108 357.232 359.911 356.728C358.72 356.225 357.788 355.49 357.114 354.523C356.447 353.557 356.086 352.38 356.032 350.992H359.757C359.812 351.72 360.036 352.326 360.431 352.809C360.826 353.292 361.34 353.652 361.972 353.891C362.612 354.129 363.327 354.248 364.116 354.248C364.939 354.248 365.661 354.125 366.28 353.88C366.906 353.629 367.396 353.282 367.75 352.839C368.103 352.39 368.284 351.866 368.291 351.267C368.284 350.723 368.124 350.274 367.811 349.92C367.498 349.559 367.059 349.26 366.494 349.022C365.936 348.777 365.283 348.559 364.534 348.369L362.156 347.756C360.435 347.314 359.074 346.644 358.073 345.745C357.08 344.84 356.583 343.639 356.583 342.142C356.583 340.911 356.917 339.832 357.583 338.907C358.257 337.981 359.172 337.263 360.329 336.753C361.486 336.236 362.796 335.977 364.259 335.977C365.742 335.977 367.042 336.236 368.158 336.753C369.281 337.263 370.162 337.974 370.801 338.886C371.441 339.791 371.771 340.832 371.792 342.01H368.148Z" fill="#202020"/>
<path d="M248.677 49.6993L259.772 83.1273H283.2L248.609 0.173401L214.073 83.1273H237.477L248.677 49.6993Z" fill="#202020"/>
<path d="M286.349 163.163L331.277 199.167H331.594L290.133 99.7418L270.506 115.454L286.349 163.163Z" fill="#202020"/>
<path d="M210.551 163.462L226.68 115.342L207.172 99.7107L165.761 199.167H165.954L210.551 163.462Z" fill="#202020"/>
</svg>
