<svg width="223" height="161" viewBox="0 0 223 161" fill="none" xmlns="http://www.w3.org/2000/svg">
<path d="M2.5224 138.049V112.387H12.647C14.585 112.387 16.239 112.734 17.609 113.427C18.9873 114.112 20.0357 115.085 20.7541 116.347C21.4809 117.6 21.8443 119.074 21.8443 120.77C21.8443 122.474 21.4767 123.94 20.7416 125.168C20.0065 126.388 18.9414 127.323 17.5464 127.975C16.1597 128.626 14.4806 128.952 12.5091 128.952H5.73019V124.592H11.632C12.6679 124.592 13.5283 124.45 14.2133 124.166C14.8983 123.882 15.4078 123.456 15.742 122.888C16.0845 122.319 16.2557 121.614 16.2557 120.77C16.2557 119.918 16.0845 119.199 15.742 118.615C15.4078 118.03 14.8941 117.587 14.2007 117.286C13.5157 116.977 12.6511 116.823 11.6069 116.823H7.94807V138.049H2.5224ZM16.381 126.371L22.759 138.049H16.7695L10.5293 126.371H16.381ZM25.6786 138.049V112.387H42.9705V116.86H31.1042V122.975H42.0809V127.449H31.1042V133.576H43.0207V138.049H25.6786ZM52.7098 112.387V138.049H47.2841V112.387H52.7098ZM78.6383 112.387V138.049H73.9519L62.7874 121.898H62.5994V138.049H57.1737V112.387H61.9353L73.0122 128.526H73.2377V112.387H78.6383ZM87.7573 112.387L93.9599 131.884H94.1979L100.413 112.387H106.428L97.5811 138.049H90.5892L81.7302 112.387H87.7573ZM109.516 138.049V112.387H126.808V116.86H114.942V122.975H125.919V127.449H114.942V133.576H126.858V138.049H109.516ZM145.043 119.767C144.943 118.757 144.513 117.971 143.753 117.412C142.992 116.852 141.961 116.572 140.658 116.572C139.772 116.572 139.024 116.698 138.415 116.948C137.805 117.19 137.337 117.529 137.011 117.963C136.694 118.397 136.535 118.89 136.535 119.442C136.518 119.901 136.614 120.302 136.823 120.645C137.04 120.987 137.337 121.284 137.713 121.534C138.089 121.777 138.523 121.99 139.016 122.173C139.509 122.349 140.035 122.499 140.595 122.624L142.9 123.176C144.02 123.426 145.047 123.76 145.983 124.178C146.919 124.596 147.729 125.11 148.414 125.719C149.099 126.329 149.629 127.048 150.005 127.875C150.389 128.702 150.586 129.65 150.594 130.719C150.586 132.29 150.185 133.651 149.391 134.804C148.606 135.948 147.47 136.838 145.983 137.473C144.504 138.099 142.721 138.413 140.632 138.413C138.561 138.413 136.756 138.095 135.219 137.46C133.691 136.826 132.496 135.886 131.636 134.641C130.784 133.388 130.337 131.838 130.295 129.992H135.545C135.604 130.853 135.85 131.571 136.284 132.147C136.727 132.716 137.316 133.146 138.051 133.438C138.795 133.722 139.634 133.864 140.57 133.864C141.489 133.864 142.286 133.731 142.963 133.463C143.648 133.196 144.179 132.824 144.554 132.348C144.93 131.872 145.118 131.325 145.118 130.707C145.118 130.13 144.947 129.646 144.605 129.253C144.27 128.86 143.778 128.526 143.126 128.251C142.483 127.975 141.693 127.724 140.758 127.499L137.964 126.797C135.8 126.271 134.092 125.448 132.839 124.329C131.586 123.209 130.963 121.701 130.972 119.805C130.963 118.251 131.377 116.894 132.212 115.733C133.056 114.572 134.213 113.665 135.683 113.014C137.153 112.362 138.824 112.036 140.695 112.036C142.6 112.036 144.262 112.362 145.682 113.014C147.111 113.665 148.222 114.572 149.015 115.733C149.809 116.894 150.218 118.239 150.243 119.767H145.043ZM153.266 116.86V112.387H174.342V116.86H166.486V138.049H161.123V116.86H153.266ZM179.101 138.049H173.287L182.146 112.387H189.138L197.984 138.049H192.17L185.742 118.251H185.541L179.101 138.049ZM178.737 127.962H192.471V132.198H178.737V127.962ZM201.073 138.049V112.387H211.197C213.135 112.387 214.789 112.734 216.159 113.427C217.538 114.112 218.586 115.085 219.305 116.347C220.031 117.6 220.395 119.074 220.395 120.77C220.395 122.474 220.027 123.94 219.292 125.168C218.557 126.388 217.492 127.323 216.097 127.975C214.71 128.626 213.031 128.952 211.06 128.952H204.281V124.592H210.182C211.218 124.592 212.079 124.45 212.764 124.166C213.449 123.882 213.958 123.456 214.292 122.888C214.635 122.319 214.806 121.614 214.806 120.77C214.806 119.918 214.635 119.199 214.292 118.615C213.958 118.03 213.445 117.587 212.751 117.286C212.066 116.977 211.202 116.823 210.157 116.823H206.499V138.049H201.073ZM214.931 126.371L221.309 138.049H215.32L209.08 126.371H214.931Z" fill="white"/>
<path d="M53.3031 153.761H51.596C51.5473 153.481 51.4575 153.233 51.3267 153.017C51.1958 152.798 51.033 152.612 50.8383 152.46C50.6435 152.308 50.4214 152.193 50.1719 152.117C49.9254 152.038 49.6591 151.999 49.3731 151.999C48.8649 151.999 48.4146 152.127 48.022 152.382C47.6295 152.635 47.3221 153.006 47.1 153.496C46.8779 153.983 46.7668 154.578 46.7668 155.281C46.7668 155.996 46.8779 156.598 47.1 157.088C47.3252 157.575 47.6325 157.943 48.022 158.193C48.4146 158.439 48.8634 158.562 49.3685 158.562C49.6485 158.562 49.9102 158.526 50.1536 158.453C50.4001 158.377 50.6207 158.266 50.8155 158.12C51.0133 157.974 51.1791 157.794 51.313 157.581C51.4499 157.368 51.5443 157.125 51.596 156.851L53.3031 156.86C53.2392 157.304 53.1008 157.721 52.8877 158.111C52.6778 158.5 52.4024 158.844 52.0616 159.142C51.7208 159.437 51.3221 159.669 50.8657 159.836C50.4092 160 49.9026 160.082 49.3457 160.082C48.5241 160.082 47.7908 159.892 47.1456 159.512C46.5005 159.131 45.9924 158.582 45.6211 157.864C45.2499 157.146 45.0642 156.285 45.0642 155.281C45.0642 154.273 45.2514 153.412 45.6257 152.697C46 151.979 46.5097 151.43 47.1548 151.049C47.7999 150.669 48.5302 150.479 49.3457 150.479C49.8661 150.479 50.3499 150.552 50.7972 150.698C51.2445 150.844 51.6432 151.058 51.9931 151.341C52.3431 151.621 52.6306 151.965 52.8558 152.373C53.084 152.778 53.2331 153.24 53.3031 153.761ZM58.5121 159.955H56.7046L59.9955 150.607H62.0861L65.3816 159.955H63.5741L61.0773 152.524H61.0043L58.5121 159.955ZM58.5714 156.289H63.501V157.65H58.5714V156.289ZM69.1836 159.955V150.607H72.6891C73.4072 150.607 74.0097 150.74 74.4966 151.008C74.9865 151.276 75.3563 151.644 75.6058 152.113C75.8584 152.578 75.9846 153.108 75.9846 153.701C75.9846 154.301 75.8584 154.833 75.6058 155.299C75.3532 155.764 74.9805 156.131 74.4875 156.399C73.9945 156.664 73.3875 156.796 72.6663 156.796H70.343V155.404H72.438C72.858 155.404 73.2018 155.331 73.4696 155.185C73.7374 155.039 73.9352 154.838 74.063 154.582C74.1938 154.327 74.2593 154.033 74.2593 153.701C74.2593 153.37 74.1938 153.077 74.063 152.825C73.9352 152.572 73.7359 152.376 73.465 152.236C73.1973 152.093 72.8519 152.022 72.4289 152.022H70.877V159.955H69.1836ZM81.7197 150.607V159.955H80.0262V150.607H81.7197ZM85.7133 152.026V150.607H93.1717V152.026H90.2824V159.955H88.6026V152.026H85.7133ZM97.2509 159.955H95.4434L98.7344 150.607H100.825L104.12 159.955H102.313L99.8162 152.524H99.7431L97.2509 159.955ZM97.3103 156.289H102.24V157.65H97.3103V156.289ZM107.922 159.955V150.607H109.616V158.535H113.733V159.955H107.922ZM129.795 153.592C129.719 153.345 129.614 153.125 129.48 152.93C129.349 152.732 129.191 152.563 129.005 152.423C128.823 152.283 128.613 152.178 128.375 152.108C128.138 152.035 127.879 151.999 127.599 151.999C127.097 151.999 126.65 152.125 126.257 152.378C125.865 152.63 125.556 153.001 125.331 153.491C125.109 153.978 124.998 154.572 124.998 155.271C124.998 155.977 125.109 156.575 125.331 157.065C125.553 157.555 125.862 157.928 126.257 158.184C126.653 158.436 127.113 158.562 127.636 158.562C128.111 158.562 128.521 158.471 128.868 158.289C129.218 158.106 129.488 157.847 129.676 157.513C129.865 157.175 129.959 156.779 129.959 156.326L130.343 156.385H127.805V155.061H131.598V156.184C131.598 156.985 131.427 157.677 131.087 158.261C130.746 158.845 130.277 159.296 129.681 159.612C129.084 159.926 128.4 160.082 127.627 160.082C126.766 160.082 126.009 159.889 125.358 159.503C124.71 159.113 124.203 158.561 123.838 157.846C123.476 157.128 123.295 156.276 123.295 155.29C123.295 154.535 123.402 153.861 123.615 153.268C123.831 152.674 124.132 152.171 124.518 151.757C124.905 151.34 125.358 151.023 125.879 150.807C126.399 150.588 126.965 150.479 127.577 150.479C128.094 150.479 128.576 150.555 129.024 150.707C129.471 150.856 129.868 151.069 130.215 151.346C130.565 151.623 130.852 151.952 131.078 152.332C131.303 152.712 131.45 153.132 131.52 153.592H129.795ZM135.806 159.955V150.607H139.312C140.03 150.607 140.632 150.731 141.119 150.981C141.609 151.23 141.979 151.58 142.228 152.031C142.481 152.478 142.607 153 142.607 153.596C142.607 154.196 142.479 154.716 142.224 155.157C141.971 155.596 141.598 155.935 141.105 156.175C140.612 156.413 140.007 156.531 139.289 156.531H136.792V155.125H139.061C139.48 155.125 139.824 155.068 140.092 154.952C140.36 154.833 140.558 154.661 140.686 154.436C140.816 154.208 140.882 153.928 140.882 153.596C140.882 153.265 140.816 152.982 140.686 152.747C140.555 152.51 140.355 152.33 140.088 152.209C139.82 152.084 139.474 152.022 139.051 152.022H137.5V159.955H135.806ZM140.635 155.719L142.949 159.955H141.06L138.787 155.719H140.635ZM155.09 155.281C155.09 156.288 154.901 157.15 154.524 157.869C154.149 158.584 153.638 159.131 152.99 159.512C152.345 159.892 151.613 160.082 150.794 160.082C149.976 160.082 149.243 159.892 148.594 159.512C147.949 159.128 147.438 158.579 147.061 157.864C146.686 157.146 146.499 156.285 146.499 155.281C146.499 154.273 146.686 153.412 147.061 152.697C147.438 151.979 147.949 151.43 148.594 151.049C149.243 150.669 149.976 150.479 150.794 150.479C151.613 150.479 152.345 150.669 152.99 151.049C153.638 151.43 154.149 151.979 154.524 152.697C154.901 153.412 155.09 154.273 155.09 155.281ZM153.387 155.281C153.387 154.572 153.276 153.974 153.054 153.487C152.835 152.997 152.53 152.627 152.141 152.378C151.751 152.125 151.303 151.999 150.794 151.999C150.286 151.999 149.837 152.125 149.448 152.378C149.058 152.627 148.753 152.997 148.53 153.487C148.311 153.974 148.202 154.572 148.202 155.281C148.202 155.99 148.311 156.589 148.53 157.079C148.753 157.566 149.058 157.936 149.448 158.188C149.837 158.438 150.286 158.562 150.794 158.562C151.303 158.562 151.751 158.438 152.141 158.188C152.53 157.936 152.835 157.566 153.054 157.079C153.276 156.589 153.387 155.99 153.387 155.281ZM165.154 150.607H166.847V156.714C166.847 157.383 166.689 157.972 166.373 158.48C166.059 158.988 165.618 159.386 165.049 159.672C164.48 159.955 163.815 160.096 163.054 160.096C162.291 160.096 161.624 159.955 161.055 159.672C160.486 159.386 160.045 158.988 159.731 158.48C159.418 157.972 159.261 157.383 159.261 156.714V150.607H160.955V156.572C160.955 156.962 161.04 157.309 161.21 157.613C161.384 157.917 161.627 158.156 161.941 158.33C162.254 158.5 162.625 158.585 163.054 158.585C163.483 158.585 163.855 158.5 164.168 158.33C164.485 158.156 164.728 157.917 164.898 157.613C165.069 157.309 165.154 156.962 165.154 156.572V150.607ZM171.259 159.955V150.607H174.764C175.482 150.607 176.085 150.74 176.572 151.008C177.062 151.276 177.431 151.644 177.681 152.113C177.934 152.578 178.06 153.108 178.06 153.701C178.06 154.301 177.934 154.833 177.681 155.299C177.428 155.764 177.056 156.131 176.563 156.399C176.07 156.664 175.463 156.796 174.741 156.796H172.418V155.404H174.513C174.933 155.404 175.277 155.331 175.545 155.185C175.813 155.039 176.01 154.838 176.138 154.582C176.269 154.327 176.334 154.033 176.334 153.701C176.334 153.37 176.269 153.077 176.138 152.825C176.01 152.572 175.811 152.376 175.54 152.236C175.272 152.093 174.927 152.022 174.504 152.022H172.952V159.955H171.259Z" fill="white"/>
<path d="M111.172 22.8492L116.134 37.7978H126.611L111.142 0.70166L95.6978 37.7978H106.163L111.172 22.8492Z" fill="#FFC862"/>
<path d="M128.019 73.5888L148.11 89.6895H148.252L129.711 45.2275L120.934 52.2539L128.019 73.5888Z" fill="#FFC862"/>
<path d="M94.1226 73.7226L101.335 52.204L92.6116 45.2139L74.0928 89.6897H74.179L94.1226 73.7226Z" fill="#FFC862"/>
</svg>
