<svg width="22" height="22" viewBox="0 0 22 22" fill="none" xmlns="http://www.w3.org/2000/svg">
<path d="M19.0924 14.8492L6.36448 2.12132C5.19281 0.949644 3.29352 0.949644 2.12184 2.12132C0.950168 3.293 0.950168 5.19229 2.12184 6.36396L14.8498 19.0919C16.0214 20.2636 17.9207 20.2636 19.0924 19.0919C20.2641 17.9202 20.2641 16.0209 19.0924 14.8492Z" fill="#E0E2E4"/>
<path d="M14.8492 2.12122L2.12132 14.8491C0.949644 16.0208 0.949644 17.9201 2.12132 19.0918C3.293 20.2635 5.19229 20.2635 6.36396 19.0918L19.0919 6.36386C20.2636 5.19218 20.2636 3.29289 19.0919 2.12122C17.9202 0.949541 16.0209 0.949541 14.8492 2.12122Z" fill="#A5ABB3"/>
</svg>
