<svg width="223" height="161" viewBox="0 0 223 161" fill="none" xmlns="http://www.w3.org/2000/svg">
<path d="M2.77192 137.978V112.315H12.8965C14.8345 112.315 16.4885 112.662 17.8585 113.355C19.2369 114.04 20.2852 115.013 21.0036 116.275C21.7304 117.528 22.0938 119.002 22.0938 120.698C22.0938 122.402 21.7262 123.868 20.9911 125.096C20.256 126.316 19.1909 127.252 17.7959 127.903C16.4092 128.555 14.7301 128.88 12.7586 128.88H5.9797V124.52H11.8815C12.9174 124.52 13.7778 124.378 14.4628 124.094C15.1478 123.81 15.6573 123.384 15.9915 122.816C16.334 122.248 16.5052 121.542 16.5052 120.698C16.5052 119.846 16.334 119.128 15.9915 118.543C15.6573 117.958 15.1436 117.515 14.4502 117.215C13.7653 116.906 12.9007 116.751 11.8565 116.751H8.19758V137.978H2.77192ZM16.6305 126.299L23.0085 137.978H17.019L10.7788 126.299H16.6305ZM25.9281 137.978V112.315H43.22V116.789H31.3538V122.903H42.3304V127.377H31.3538V133.504H43.2702V137.978H25.9281ZM52.9593 112.315V137.978H47.5336V112.315H52.9593ZM78.8878 112.315V137.978H74.2015L63.0369 121.826H62.8489V137.978H57.4233V112.315H62.1848L73.2617 128.454H73.4872V112.315H78.8878ZM88.0068 112.315L94.2094 131.813H94.4475L100.663 112.315H106.677L97.8307 137.978H90.8387L81.9797 112.315H88.0068ZM109.766 137.978V112.315H127.058V116.789H115.192V122.903H126.168V127.377H115.192V133.504H127.108V137.978H109.766ZM145.293 119.696C145.192 118.685 144.762 117.9 144.002 117.34C143.242 116.78 142.21 116.5 140.907 116.5C140.022 116.5 139.274 116.626 138.664 116.876C138.054 117.119 137.586 117.457 137.261 117.891C136.943 118.326 136.785 118.819 136.785 119.37C136.768 119.829 136.864 120.23 137.073 120.573C137.29 120.915 137.586 121.212 137.962 121.462C138.338 121.705 138.773 121.918 139.266 122.102C139.758 122.277 140.285 122.427 140.844 122.553L143.15 123.104C144.269 123.355 145.297 123.689 146.232 124.106C147.168 124.524 147.978 125.038 148.663 125.648C149.348 126.257 149.879 126.976 150.255 127.803C150.639 128.63 150.835 129.578 150.844 130.647C150.835 132.218 150.434 133.579 149.641 134.732C148.856 135.877 147.719 136.766 146.232 137.401C144.754 138.028 142.97 138.341 140.882 138.341C138.81 138.341 137.006 138.023 135.469 137.389C133.94 136.754 132.746 135.814 131.885 134.569C131.033 133.316 130.586 131.767 130.544 129.92H135.795C135.853 130.781 136.1 131.499 136.534 132.076C136.977 132.644 137.566 133.074 138.301 133.366C139.044 133.65 139.884 133.792 140.819 133.792C141.738 133.792 142.536 133.659 143.213 133.391C143.898 133.124 144.428 132.752 144.804 132.276C145.18 131.8 145.368 131.253 145.368 130.635C145.368 130.058 145.197 129.574 144.854 129.181C144.52 128.789 144.027 128.454 143.376 128.179C142.732 127.903 141.943 127.652 141.007 127.427L138.213 126.725C136.049 126.199 134.341 125.376 133.088 124.257C131.835 123.137 131.213 121.63 131.221 119.733C131.213 118.18 131.626 116.822 132.462 115.661C133.305 114.5 134.462 113.593 135.932 112.942C137.403 112.29 139.073 111.964 140.945 111.964C142.849 111.964 144.512 112.29 145.932 112.942C147.36 113.593 148.471 114.5 149.265 115.661C150.058 116.822 150.468 118.167 150.493 119.696H145.293ZM153.516 116.789V112.315H174.592V116.789H166.735V137.978H161.372V116.789H153.516ZM179.35 137.978H173.536L182.395 112.315H189.387L198.234 137.978H192.42L185.991 118.18H185.791L179.35 137.978ZM178.987 127.891H192.72V132.126H178.987V127.891ZM201.322 137.978V112.315H211.447C213.385 112.315 215.039 112.662 216.409 113.355C217.787 114.04 218.836 115.013 219.554 116.275C220.281 117.528 220.644 119.002 220.644 120.698C220.644 122.402 220.277 123.868 219.542 125.096C218.806 126.316 217.741 127.252 216.346 127.903C214.96 128.555 213.281 128.88 211.309 128.88H204.53V124.52H210.432C211.468 124.52 212.328 124.378 213.013 124.094C213.698 123.81 214.208 123.384 214.542 122.816C214.884 122.248 215.056 121.542 215.056 120.698C215.056 119.846 214.884 119.128 214.542 118.543C214.208 117.958 213.694 117.515 213.001 117.215C212.316 116.906 211.451 116.751 210.407 116.751H206.748V137.978H201.322ZM215.181 126.299L221.559 137.978H215.569L209.329 126.299H215.181Z" fill="#202020"/>
<path d="M53.5526 153.689H51.8455C51.7968 153.409 51.7071 153.161 51.5762 152.945C51.4454 152.726 51.2826 152.54 51.0878 152.388C50.8931 152.236 50.6709 152.122 50.4214 152.046C50.1749 151.967 49.9087 151.927 49.6226 151.927C49.1144 151.927 48.6641 152.055 48.2715 152.31C47.879 152.563 47.5716 152.934 47.3495 153.424C47.1274 153.911 47.0163 154.506 47.0163 155.209C47.0163 155.924 47.1274 156.526 47.3495 157.016C47.5747 157.503 47.882 157.871 48.2715 158.121C48.6641 158.367 49.1129 158.491 49.6181 158.491C49.898 158.491 50.1597 158.454 50.4031 158.381C50.6496 158.305 50.8702 158.194 51.065 158.048C51.2628 157.902 51.4286 157.722 51.5625 157.509C51.6994 157.296 51.7938 157.053 51.8455 156.779L53.5526 156.788C53.4887 157.232 53.3503 157.649 53.1373 158.039C52.9273 158.428 52.6519 158.772 52.3111 159.07C51.9703 159.366 51.5716 159.597 51.1152 159.764C50.6588 159.928 50.1521 160.011 49.5952 160.011C48.7736 160.011 48.0403 159.82 47.3952 159.44C46.75 159.06 46.2419 158.51 45.8706 157.792C45.4994 157.074 45.3138 156.213 45.3138 155.209C45.3138 154.202 45.5009 153.34 45.8752 152.625C46.2495 151.907 46.7592 151.358 47.4043 150.978C48.0494 150.597 48.7797 150.407 49.5952 150.407C50.1156 150.407 50.5994 150.48 51.0467 150.626C51.494 150.772 51.8927 150.987 52.2426 151.27C52.5926 151.55 52.8801 151.893 53.1053 152.301C53.3335 152.706 53.4826 153.168 53.5526 153.689ZM58.7616 159.883H56.9541L60.245 150.535H62.3356L65.6311 159.883H63.8236L61.3268 152.452H61.2538L58.7616 159.883ZM58.8209 156.218H63.7506V157.578H58.8209V156.218ZM69.4331 159.883V150.535H72.9386C73.6567 150.535 74.2593 150.669 74.7461 150.936C75.2361 151.204 75.6058 151.572 75.8553 152.041C76.1079 152.507 76.2341 153.036 76.2341 153.629C76.2341 154.229 76.1079 154.761 75.8553 155.227C75.6027 155.693 75.23 156.059 74.737 156.327C74.244 156.592 73.637 156.724 72.9158 156.724H70.5925V155.332H72.6876C73.1075 155.332 73.4513 155.259 73.7191 155.113C73.9869 154.967 74.1847 154.766 74.3125 154.51C74.4434 154.255 74.5088 153.961 74.5088 153.629C74.5088 153.298 74.4434 153.006 74.3125 152.753C74.1847 152.501 73.9854 152.304 73.7146 152.164C73.4468 152.021 73.1014 151.95 72.6784 151.95H71.1265V159.883H69.4331ZM81.9692 150.535V159.883H80.2758V150.535H81.9692ZM85.9629 151.954V150.535H93.4212V151.954H90.5319V159.883H88.8522V151.954H85.9629ZM97.5005 159.883H95.6929L98.9839 150.535H101.074L104.37 159.883H102.562L100.066 152.452H99.9927L97.5005 159.883ZM97.5598 156.218H102.489V157.578H97.5598V156.218ZM108.172 159.883V150.535H109.865V158.463H113.983V159.883H108.172ZM130.044 153.52C129.968 153.273 129.863 153.053 129.729 152.858C129.599 152.66 129.44 152.491 129.255 152.351C129.072 152.211 128.862 152.106 128.625 152.036C128.388 151.963 128.129 151.927 127.849 151.927C127.347 151.927 126.9 152.053 126.507 152.306C126.114 152.558 125.806 152.93 125.58 153.42C125.358 153.906 125.247 154.5 125.247 155.2C125.247 155.906 125.358 156.504 125.58 156.994C125.803 157.483 126.111 157.856 126.507 158.112C126.903 158.364 127.362 158.491 127.885 158.491C128.36 158.491 128.771 158.399 129.118 158.217C129.468 158.034 129.737 157.776 129.926 157.441C130.114 157.103 130.209 156.707 130.209 156.254L130.592 156.313H128.054V154.99H131.847V156.113C131.847 156.913 131.677 157.605 131.336 158.189C130.995 158.774 130.527 159.224 129.93 159.54C129.334 159.854 128.649 160.011 127.876 160.011C127.015 160.011 126.259 159.817 125.608 159.431C124.96 159.041 124.453 158.489 124.088 157.774C123.726 157.056 123.545 156.204 123.545 155.218C123.545 154.463 123.651 153.789 123.864 153.196C124.08 152.602 124.381 152.099 124.768 151.685C125.154 151.268 125.608 150.952 126.128 150.736C126.648 150.517 127.214 150.407 127.826 150.407C128.343 150.407 128.826 150.483 129.273 150.635C129.72 150.784 130.117 150.997 130.464 151.274C130.814 151.551 131.102 151.88 131.327 152.26C131.552 152.641 131.7 153.06 131.77 153.52H130.044ZM136.056 159.883V150.535H139.561C140.279 150.535 140.882 150.66 141.369 150.909C141.859 151.159 142.228 151.509 142.478 151.959C142.73 152.406 142.857 152.928 142.857 153.525C142.857 154.124 142.729 154.644 142.473 155.086C142.221 155.524 141.848 155.863 141.355 156.103C140.862 156.341 140.256 156.459 139.538 156.459H137.042V155.054H139.31C139.73 155.054 140.074 154.996 140.342 154.88C140.609 154.761 140.807 154.59 140.935 154.364C141.066 154.136 141.131 153.856 141.131 153.525C141.131 153.193 141.066 152.91 140.935 152.676C140.804 152.438 140.605 152.259 140.337 152.137C140.069 152.012 139.724 151.95 139.301 151.95H137.749V159.883H136.056ZM140.885 155.647L143.199 159.883H141.309L139.036 155.647H140.885ZM155.339 155.209C155.339 156.216 155.15 157.079 154.773 157.797C154.399 158.512 153.888 159.06 153.239 159.44C152.594 159.82 151.863 160.011 151.044 160.011C150.225 160.011 149.492 159.82 148.844 159.44C148.199 159.057 147.688 158.507 147.31 157.792C146.936 157.074 146.749 156.213 146.749 155.209C146.749 154.202 146.936 153.34 147.31 152.625C147.688 151.907 148.199 151.358 148.844 150.978C149.492 150.597 150.225 150.407 151.044 150.407C151.863 150.407 152.594 150.597 153.239 150.978C153.888 151.358 154.399 151.907 154.773 152.625C155.15 153.34 155.339 154.202 155.339 155.209ZM153.637 155.209C153.637 154.5 153.525 153.902 153.303 153.415C153.084 152.925 152.78 152.555 152.39 152.306C152.001 152.053 151.552 151.927 151.044 151.927C150.536 151.927 150.087 152.053 149.697 152.306C149.308 152.555 149.002 152.925 148.78 153.415C148.561 153.902 148.451 154.5 148.451 155.209C148.451 155.918 148.561 156.517 148.78 157.007C149.002 157.494 149.308 157.864 149.697 158.116C150.087 158.366 150.536 158.491 151.044 158.491C151.552 158.491 152.001 158.366 152.39 158.116C152.78 157.864 153.084 157.494 153.303 157.007C153.525 156.517 153.637 155.918 153.637 155.209ZM165.404 150.535H167.097V156.642C167.097 157.311 166.939 157.9 166.622 158.408C166.309 158.917 165.868 159.314 165.299 159.6C164.73 159.883 164.065 160.024 163.304 160.024C162.54 160.024 161.874 159.883 161.305 159.6C160.736 159.314 160.294 158.917 159.981 158.408C159.668 157.9 159.511 157.311 159.511 156.642V150.535H161.204V156.501C161.204 156.89 161.289 157.237 161.46 157.541C161.633 157.846 161.877 158.084 162.19 158.258C162.504 158.428 162.875 158.513 163.304 158.513C163.733 158.513 164.104 158.428 164.418 158.258C164.734 158.084 164.978 157.846 165.148 157.541C165.318 157.237 165.404 156.89 165.404 156.501V150.535ZM171.508 159.883V150.535H175.014C175.732 150.535 176.334 150.669 176.821 150.936C177.311 151.204 177.681 151.572 177.93 152.041C178.183 152.507 178.309 153.036 178.309 153.629C178.309 154.229 178.183 154.761 177.93 155.227C177.678 155.693 177.305 156.059 176.812 156.327C176.319 156.592 175.712 156.724 174.991 156.724H172.668V155.332H174.763C175.183 155.332 175.527 155.259 175.794 155.113C176.062 154.967 176.26 154.766 176.388 154.51C176.519 154.255 176.584 153.961 176.584 153.629C176.584 153.298 176.519 153.006 176.388 152.753C176.26 152.501 176.061 152.304 175.79 152.164C175.522 152.021 175.177 151.95 174.754 151.95H173.202V159.883H171.508Z" fill="#202020"/>
<path d="M111.421 22.7774L116.383 37.726H126.86L111.391 0.629883L95.9468 37.726H106.413L111.421 22.7774Z" fill="#FFC862"/>
<path d="M128.268 73.517L148.359 89.6177H148.501L129.96 45.1558L121.183 52.1821L128.268 73.517Z" fill="#FFC862"/>
<path d="M94.3717 73.6508L101.584 52.1322L92.8607 45.1421L74.3418 89.618H74.4281L94.3717 73.6508Z" fill="#FFC862"/>
</svg>
