<svg width="24" height="24" viewBox="0 0 24 24" fill="none" xmlns="http://www.w3.org/2000/svg">
<path d="M8 18L8 6C8 4.343 6.657 3 5 3C3.343 3 2 4.343 2 6L2 18C2 19.657 3.343 21 5 21C6.657 21 8 19.657 8 18Z" fill="#A5ABB3"/>
<path d="M18 3L13 3C11.343 3 10 4.343 10 6C10 7.657 11.343 9 13 9H18C19.657 9 21 7.657 21 6C21 4.343 19.657 3 18 3Z" fill="#E0E2E4"/>
<path d="M18 11C19.657 11 21 12.2212 21 13.7275C21 13.8823 20.9853 14.0339 20.958 14.1816C20.9853 14.3295 21 14.4818 21 14.6367C21 14.7915 20.9853 14.9431 20.958 15.0908C20.9853 15.2387 21 15.391 21 15.5459C21 15.7006 20.9853 15.8523 20.958 16C20.9853 16.1477 21 16.2994 21 16.4541C21 16.6087 20.9852 16.7606 20.958 16.9082C20.9854 17.0562 21 17.2082 21 17.3633C21 17.5179 20.9852 17.6698 20.958 17.8174C20.9854 17.9654 21 18.1174 21 18.2725C21 19.7788 19.657 21 18 21H13C11.343 21 10 19.7788 10 18.2725C10 18.1174 10.0137 17.9653 10.041 17.8174C10.0138 17.6698 10 17.5179 10 17.3633C10 17.2083 10.0137 17.0562 10.041 16.9082C10.0139 16.7607 10 16.6086 10 16.4541C10 16.2994 10.0138 16.1477 10.041 16C10.0138 15.8523 10 15.7006 10 15.5459C10 15.391 10.0137 15.2386 10.041 15.0908C10.0138 14.9432 10 14.7914 10 14.6367C10 14.4818 10.0137 14.3295 10.041 14.1816C10.0138 14.034 10 13.8822 10 13.7275C10 12.2212 11.343 11 13 11H18Z" fill="#E0E2E4"/>
</svg>
