<svg width="24" height="24" viewBox="0 0 24 24" fill="none" xmlns="http://www.w3.org/2000/svg">
<path opacity="0.35" d="M12 12C14.7614 12 17 9.76142 17 7C17 4.23858 14.7614 2 12 2C9.23858 2 7 4.23858 7 7C7 9.76142 9.23858 12 12 12Z" fill="#A5ABB3"/>
<path d="M18 15H6C4.343 15 3 16.343 3 18C3 19.657 4.343 21 6 21H18C19.657 21 21 19.657 21 18C21 16.343 19.657 15 18 15Z" fill="#A5ABB3"/>
<path d="M24 8.24567C24 8.75254 23.8091 9.16059 23.4273 9.46981C23.0455 9.77585 22.511 9.95916 21.8237 10.0197V11H21.1414V10.0389C20.3313 10.0229 19.6208 9.88583 19.01 9.62762V8.36521C19.2988 8.50229 19.6458 8.62343 20.0508 8.72863C20.4592 8.83383 20.8227 8.896 21.1414 8.91512V7.43276L20.8078 7.30843C20.1504 7.05977 19.6839 6.7904 19.4084 6.5003C19.1361 6.20701 19 5.84519 19 5.41482C19 4.95258 19.1876 4.57322 19.5627 4.27675C19.9412 3.97709 20.4675 3.79538 21.1414 3.73162V3H21.8237V3.71249C22.584 3.74437 23.2712 3.89101 23.8855 4.15242L23.4173 5.27137C22.8994 5.06734 22.3682 4.94302 21.8237 4.89839V6.30903C22.4711 6.54812 22.9309 6.75533 23.2032 6.93066C23.4788 7.106 23.6796 7.29886 23.8058 7.50926C23.9353 7.71967 24 7.96513 24 8.24567ZM22.501 8.31739C22.501 8.1835 22.4446 8.07033 22.3317 7.97788C22.2188 7.88544 22.0495 7.7898 21.8237 7.69097V8.88165C22.2752 8.80833 22.501 8.62024 22.501 8.31739ZM20.499 5.41482C20.499 5.55509 20.5488 5.67145 20.6484 5.7639C20.7513 5.85316 20.9157 5.94561 21.1414 6.04124V4.91751C20.7131 4.97808 20.499 5.14385 20.499 5.41482Z" fill="#A5ABB3"/>
</svg>
